<svg width="108" height="38" viewBox="0 0 108 38" fill="none" xmlns="http://www.w3.org/2000/svg">
<path d="M36 18.9823C36.0045 19.3948 35.8498 19.8094 35.5338 20.1255L19.1244 36.5327C18.5035 37.1558 17.4948 37.1558 16.874 36.5327L0.464543 20.1255C0.14402 19.8049 -0.0106392 19.3813 0.000567922 18.9599C0.0095336 18.5654 0.166435 18.1732 0.464543 17.8728L16.874 1.46565C17.4948 0.844782 18.5035 0.844782 19.1244 1.46565L35.5338 17.8728C35.8386 18.1799 35.9955 18.5811 36 18.9823Z" fill="#2C2E35"/>
<path opacity="0.26" d="M35.9999 18.9823C25.8844 18.9577 6.71578 18.9173 0.000488281 18.9599C0.00945396 18.5654 0.166355 18.1732 0.464464 17.8728L16.8739 1.46565C17.4948 0.844782 18.5034 0.844782 19.1243 1.46565L35.5337 17.8728C35.8385 18.1799 35.9954 18.5811 35.9999 18.9823Z" fill="#2C2E35"/>
<path d="M31.3244 20.3329L28.563 23.0943L19.3328 32.3245C18.9652 32.6943 18.4811 32.8781 17.9992 32.8781C17.5172 32.8781 17.0331 32.6943 16.6655 32.3245L7.43535 23.0943L4.67392 20.3329C3.93649 19.5977 3.93649 18.4008 4.67392 17.6656L16.6655 5.67402C16.8829 5.45436 17.1429 5.30194 17.4164 5.21453C17.7952 5.09125 18.2031 5.09125 18.5819 5.21453C18.8554 5.30194 19.1154 5.45436 19.3328 5.67402L31.3244 17.6656C32.0618 18.4008 32.0618 19.5977 31.3244 20.3329Z" fill="#FCFCFA"/>
<path d="M28.5629 6.60053V23.0951L19.3328 32.3253C18.9652 32.6951 18.481 32.8789 17.9991 32.8789C17.5172 32.8789 17.0331 32.6951 16.6655 32.3253L7.4353 23.0951V6.60053C7.4353 6.37639 7.48909 6.16569 7.58323 5.97741C7.81186 5.52465 8.28032 5.21533 8.8205 5.21533H27.1777C27.942 5.21533 28.5629 5.83396 28.5629 6.60053Z" fill="#FFC61B"/>
<path d="M28.5629 6.60053V23.0951L26.6689 24.9891L7.58325 5.97741C7.81188 5.52465 8.28034 5.21533 8.82052 5.21533H27.1777C27.9421 5.21533 28.5629 5.83396 28.5629 6.60053Z" fill="#FFC61B"/>
<path d="M24.7491 14.9054H11.2488C10.6764 14.9054 10.2122 14.4412 10.2122 13.8687V8.66459C10.2122 8.09213 10.6764 7.62793 11.2488 7.62793H24.7491C25.3216 7.62793 25.7858 8.09213 25.7858 8.66459V13.8687C25.7858 14.4414 25.3218 14.9054 24.7491 14.9054Z" fill="#FCFCFA"/>
<path d="M13.2344 22.3127H10.4082C9.83578 22.3127 9.37158 21.8485 9.37158 21.276V19.6929C9.37158 19.1204 9.83578 18.6562 10.4082 18.6562H13.2344C13.8069 18.6562 14.2711 19.1204 14.2711 19.6929V21.276C14.2711 21.8485 13.8069 22.3127 13.2344 22.3127Z" fill="#FCFCFA"/>
<path d="M19.4122 22.3127H16.586C16.0135 22.3127 15.5493 21.8485 15.5493 21.276V19.6929C15.5493 19.1204 16.0135 18.6562 16.586 18.6562H19.4122C19.9846 18.6562 20.4488 19.1204 20.4488 19.6929V21.276C20.4488 21.8485 19.9846 22.3127 19.4122 22.3127Z" fill="#FCFCFA"/>
<path d="M25.5902 22.3127H22.764C22.1915 22.3127 21.7273 21.8485 21.7273 21.276V19.6929C21.7273 19.1204 22.1915 18.6562 22.764 18.6562H25.5902C26.1626 18.6562 26.6268 19.1204 26.6268 19.6929V21.276C26.6268 21.8485 26.1626 22.3127 25.5902 22.3127Z" fill="#FCFCFA"/>
<path d="M14.272 25.2165V27.069C14.272 27.5682 13.8683 27.9719 13.3692 27.9719H12.2928L9.38525 25.0643C9.45743 24.6391 9.82973 24.3154 10.2744 24.3154H13.3692C13.8683 24.3157 14.272 24.7193 14.272 25.2165Z" fill="#FCFCFA"/>
<path d="M19.4122 27.9723H16.586C16.0135 27.9723 15.5493 27.5081 15.5493 26.9357V25.3526C15.5493 24.7801 16.0135 24.3159 16.586 24.3159H19.4122C19.9846 24.3159 20.4488 24.7801 20.4488 25.3526V26.9357C20.4488 27.5081 19.9846 27.9723 19.4122 27.9723Z" fill="#FCFCFA"/>
<path d="M26.6133 25.0646L23.7057 27.9721H22.6294C22.1302 27.9721 21.7266 27.5684 21.7266 27.0693V25.2167C21.7266 24.7196 22.1302 24.3159 22.6294 24.3159H25.7241C26.1686 24.3157 26.5411 24.6394 26.6133 25.0646Z" fill="#FCFCFA"/>
<path d="M20.4484 30.8262V31.1108L19.1594 32.3999C18.8395 32.7218 18.4184 32.8816 17.9992 32.8816C17.5799 32.8816 17.1587 32.7218 16.8388 32.3999L15.5498 31.1108V30.8262C15.5498 30.327 15.9535 29.9233 16.4506 29.9233H19.5474C20.0447 29.9233 20.4484 30.327 20.4484 30.8262Z" fill="#FCFCFA"/>
<path d="M57.88 29L52.54 8H56.62L61.06 26.45H61.48L65.92 8H70L64.66 29H57.88ZM88.7216 29L94.2416 8H101.142L106.662 29H102.582L101.442 24.38H93.9416L92.8016 29H88.7216ZM94.8716 20.72H100.512L97.9616 10.49H97.4216L94.8716 20.72Z" fill="#FFC61B"/>
<path d="M69.708 29L75.228 8H82.128L87.648 29H83.568L82.428 24.38H74.928L73.788 29H69.708ZM75.858 20.72H81.498L78.948 10.49H78.408L75.858 20.72Z" fill="#2C2E35"/>
</svg>
