<svg width="106" height="100" viewBox="0 0 106 100" fill="none" xmlns="http://www.w3.org/2000/svg">
<g clip-path="url(#clip0_6009_1188)">
<path d="M97.5661 92.2183H8.43391C8.12834 92.2183 7.83528 92.0972 7.6192 91.8816C7.40313 91.6661 7.28174 91.3737 7.28174 91.0689V37.3677C7.28173 36.2448 7.72808 35.1678 8.5229 34.3727C9.31773 33.5776 10.3962 33.1294 11.5217 33.1263H36.7774C37.083 33.1263 37.376 33.2474 37.5921 33.463C37.8082 33.6786 37.9296 33.9709 37.9296 34.2758C37.9296 34.5806 37.8082 34.873 37.5921 35.0885C37.376 35.3041 37.083 35.4252 36.7774 35.4252H11.5217C11.0073 35.4282 10.515 35.6342 10.1523 35.9982C9.78964 36.3622 9.58608 36.8545 9.58609 37.3677V89.9194H96.4139V37.3677C96.4139 36.8545 96.2104 36.3622 95.8477 35.9982C95.485 35.6342 94.9927 35.4282 94.4783 35.4252H69.6604C69.3549 35.4252 69.0618 35.3041 68.8457 35.0885C68.6296 34.873 68.5083 34.5806 68.5083 34.2758C68.5083 33.9709 68.6296 33.6786 68.8457 33.463C69.0618 33.2474 69.3549 33.1263 69.6604 33.1263H94.4783C95.6038 33.1294 96.6823 33.5776 97.4771 34.3727C98.2719 35.1678 98.7183 36.2448 98.7183 37.3677V91.0689C98.7183 91.3737 98.5969 91.6661 98.3808 91.8816C98.1647 92.0972 97.8717 92.2183 97.5661 92.2183Z" fill="#FCFCFA"/>
<path d="M91.1946 86.4253H14.8055C14.4999 86.4253 14.2069 86.3042 13.9908 86.0886C13.7747 85.8731 13.6533 85.5807 13.6533 85.2759C13.6533 84.971 13.7747 84.6787 13.9908 84.4631C14.2069 84.2475 14.4999 84.1264 14.8055 84.1264H90.0424V41.2299H66.492C66.1864 41.2299 65.8934 41.1088 65.6773 40.8932C65.4612 40.6777 65.3398 40.3853 65.3398 40.0805C65.3398 39.7756 65.4612 39.4832 65.6773 39.2677C65.8934 39.0521 66.1864 38.931 66.492 38.931H91.1946C91.5002 38.931 91.7933 39.0521 92.0093 39.2677C92.2254 39.4832 92.3468 39.7756 92.3468 40.0805V85.2759C92.3468 85.5807 92.2254 85.8731 92.0093 86.0886C91.7933 86.3042 91.5002 86.4253 91.1946 86.4253Z" fill="#FCFCFA"/>
<path d="M14.8055 86.4253C14.4999 86.4253 14.2069 86.3042 13.9908 86.0886C13.7747 85.8731 13.6533 85.5807 13.6533 85.2759V40.0805C13.6533 39.7756 13.7747 39.4832 13.9908 39.2677C14.2069 39.0521 14.4999 38.931 14.8055 38.931H39.9574C40.263 38.931 40.5561 39.0521 40.7722 39.2677C40.9882 39.4832 41.1096 39.7756 41.1096 40.0805C41.1096 40.3853 40.9882 40.6777 40.7722 40.8932C40.5561 41.1088 40.263 41.2299 39.9574 41.2299H15.9577V85.2759C15.9577 85.5807 15.8363 85.8731 15.6202 86.0886C15.4041 86.3042 15.1111 86.4253 14.8055 86.4253Z" fill="#FCFCFA"/>
<path d="M96.5059 100.483H9.49372C8.17328 100.483 6.87165 100.171 5.69587 99.5711C4.52008 98.9716 3.50375 98.1023 2.73046 97.0345L0.483719 93.954C0.207254 93.5749 0.0413754 93.1268 0.00445282 92.6593C-0.0324698 92.1919 0.0610039 91.7234 0.274523 91.3057C0.488042 90.8881 0.813275 90.5375 1.21421 90.2928C1.61514 90.0481 2.07612 89.919 2.54611 89.9196H103.454C103.924 89.919 104.384 90.0481 104.785 90.2928C105.186 90.5375 105.512 90.8881 105.725 91.3057C105.939 91.7234 106.032 92.1919 105.995 92.6593C105.958 93.1268 105.792 93.5749 105.516 93.954L103.212 97.0345C102.444 98.0944 101.437 98.959 100.272 99.5581C99.1068 100.157 97.8166 100.474 96.5059 100.483ZM2.54611 92.2184C2.50289 92.2167 2.46012 92.2278 2.42321 92.2503C2.3863 92.2728 2.3569 92.3057 2.33872 92.3448C2.31394 92.3824 2.30073 92.4263 2.30073 92.4713C2.30073 92.5162 2.31394 92.5602 2.33872 92.5977L4.64307 95.6897C5.20373 96.4618 5.9398 97.0903 6.79096 97.5239C7.64211 97.9574 8.58412 98.1836 9.53981 98.1839H96.5059C97.4596 98.1818 98.3994 97.9548 99.2484 97.5213C100.097 97.0878 100.832 96.4602 101.391 95.6897L103.695 92.5977C103.72 92.5602 103.733 92.5162 103.733 92.4713C103.733 92.4263 103.72 92.3824 103.695 92.3448C103.677 92.3057 103.648 92.2728 103.611 92.2503C103.574 92.2278 103.531 92.2167 103.488 92.2184H2.54611Z" fill="#FCFCFA"/>
<path d="M61.6989 58.3679H44.7389C44.4333 58.3679 44.1403 58.2468 43.9242 58.0312C43.7081 57.8156 43.5867 57.5233 43.5867 57.2184V53.4138C43.5867 49.1839 41.7778 44.5288 38.2061 39.6207C35.9499 36.4944 34.7403 32.7374 34.7496 28.8851C34.7486 26.3589 35.2664 23.8592 36.2711 21.5404C37.2758 19.2215 38.746 17.1325 40.5911 15.4023C43.1396 12.9844 46.3283 11.3443 49.7808 10.6754C53.2332 10.0065 56.8055 10.3369 60.0759 11.6274C63.3463 12.918 66.1784 15.1149 68.2381 17.9589C70.2977 20.8029 71.4989 24.1753 71.6998 27.6782C71.9683 31.8904 70.7763 36.0665 68.3239 39.5058C64.7176 44.5403 62.8972 49.3564 62.8972 53.7931V57.2414C62.8942 57.3944 62.8607 57.5452 62.7986 57.6851C62.7365 57.8249 62.647 57.951 62.5354 58.0559C62.4238 58.1608 62.2923 58.2424 62.1487 58.296C62.005 58.3496 61.8521 58.374 61.6989 58.3679ZM45.8911 56.069H60.5467V53.7702C60.5467 48.8391 62.517 43.5862 66.3998 38.1495C68.5501 35.144 69.5922 31.4891 69.3493 27.8046C69.1748 25.328 68.4281 22.9253 67.1679 20.7844C65.9076 18.6436 64.1678 16.8227 62.0848 15.4642C60.0017 14.1057 57.6318 13.2465 55.1605 12.9538C52.6892 12.6611 50.1835 12.9428 47.8395 13.7769C45.4954 14.611 43.3767 15.9748 41.6489 17.7618C39.9212 19.5487 38.6313 21.7102 37.8803 24.0772C37.1292 26.4442 36.9374 28.9524 37.3197 31.4057C37.702 33.8589 38.6482 36.1907 40.0841 38.2184C43.9324 43.5748 45.845 48.6782 45.845 53.4023L45.8911 56.069Z" fill="#FCFCFA"/>
<path d="M52.9998 6.96548C52.6943 6.96548 52.4012 6.84438 52.1851 6.62882C51.969 6.41326 51.8477 6.1209 51.8477 5.81605V1.81605C51.8477 1.5112 51.969 1.21884 52.1851 1.00329C52.4012 0.787726 52.6943 0.666626 52.9998 0.666626C53.3054 0.666626 53.5985 0.787726 53.8145 1.00329C54.0306 1.21884 54.152 1.5112 54.152 1.81605V5.81605C54.152 6.1209 54.0306 6.41326 53.8145 6.62882C53.5985 6.84438 53.3054 6.96548 52.9998 6.96548Z" fill="#FCFCFA"/>
<path d="M41.478 10.1609C41.275 10.1617 41.0754 10.109 40.8993 10.008C40.7233 9.90711 40.5771 9.76157 40.4756 9.58617L38.4709 6.13789C38.3875 6.00707 38.3315 5.86077 38.3063 5.7078C38.2811 5.55484 38.2871 5.39836 38.3241 5.24779C38.3611 5.09722 38.4282 4.95567 38.5214 4.83164C38.6146 4.70762 38.7321 4.60369 38.8666 4.52612C39.0011 4.44854 39.15 4.39891 39.3043 4.38021C39.4585 4.36152 39.615 4.37415 39.7642 4.41734C39.9134 4.46053 40.0524 4.5334 40.1727 4.63155C40.2929 4.7297 40.3921 4.8511 40.4641 4.98847L42.4689 8.43674C42.5451 8.56793 42.5945 8.71286 42.6143 8.86318C42.6341 9.0135 42.6239 9.16624 42.5843 9.31261C42.5446 9.45898 42.4764 9.59608 42.3834 9.71602C42.2904 9.83596 42.1746 9.93636 42.0426 10.0115C41.8704 10.1088 41.676 10.1603 41.478 10.1609Z" fill="#FCFCFA"/>
<path d="M33.1251 18.6667C32.9271 18.6661 32.7327 18.6146 32.5605 18.5173L29.104 16.5173C28.8381 16.3649 28.6439 16.1133 28.5639 15.818C28.484 15.5227 28.5249 15.2078 28.6777 14.9426C28.8305 14.6773 29.0826 14.4835 29.3786 14.4038C29.6747 14.324 29.9903 14.3649 30.2562 14.5173L33.7127 16.5288C33.9298 16.6573 34.0985 16.8533 34.1931 17.0869C34.2876 17.3204 34.3026 17.5784 34.2359 17.8212C34.1691 18.0641 34.0243 18.2784 33.8236 18.4311C33.6229 18.5839 33.3775 18.6666 33.1251 18.6667Z" fill="#FCFCFA"/>
<path d="M30.1525 30.2069H26.1429C25.8373 30.2069 25.5443 30.0858 25.3282 29.8703C25.1121 29.6547 24.9907 29.3624 24.9907 29.0575C24.9907 28.7527 25.1121 28.4603 25.3282 28.2447C25.5443 28.0292 25.8373 27.9081 26.1429 27.9081H30.1525C30.458 27.9081 30.7511 28.0292 30.9672 28.2447C31.1832 28.4603 31.3046 28.7527 31.3046 29.0575C31.3046 29.3624 31.1832 29.6547 30.9672 29.8703C30.7511 30.0858 30.458 30.2069 30.1525 30.2069Z" fill="#FCFCFA"/>
<path d="M64.5216 10.1609C64.3236 10.1603 64.1292 10.1088 63.957 10.0115C63.825 9.93636 63.7091 9.83596 63.6162 9.71602C63.5232 9.59608 63.455 9.45898 63.4153 9.31261C63.3757 9.16624 63.3655 9.0135 63.3853 8.86318C63.4051 8.71286 63.4545 8.56793 63.5307 8.43674L65.5355 4.98847C65.6075 4.8511 65.7066 4.7297 65.8269 4.63155C65.9472 4.5334 66.0861 4.46053 66.2354 4.41734C66.3846 4.37415 66.5411 4.36152 66.6953 4.38021C66.8496 4.39891 66.9985 4.44854 67.133 4.52612C67.2675 4.60369 67.3849 4.70762 67.4782 4.83164C67.5714 4.95567 67.6385 5.09722 67.6755 5.24779C67.7125 5.39836 67.7185 5.55484 67.6933 5.7078C67.6681 5.86077 67.6121 6.00707 67.5287 6.13789L65.524 9.58617C65.4224 9.76157 65.2763 9.90711 65.1003 10.008C64.9242 10.109 64.7246 10.1617 64.5216 10.1609Z" fill="#FCFCFA"/>
<path d="M72.875 18.6667C72.6226 18.6666 72.3771 18.5839 72.1764 18.4311C71.9758 18.2784 71.8309 18.0641 71.7642 17.8212C71.6974 17.5784 71.7125 17.3204 71.807 17.0869C71.9015 16.8533 72.0703 16.6573 72.2874 16.5288L75.7439 14.5173C76.0097 14.3649 76.3254 14.324 76.6214 14.4038C76.9174 14.4835 77.1696 14.6773 77.3224 14.9426C77.4752 15.2078 77.5161 15.5227 77.4361 15.818C77.3562 16.1133 77.1619 16.3649 76.8961 16.5173L73.4395 18.5173C73.2673 18.6146 73.0729 18.6661 72.875 18.6667Z" fill="#FCFCFA"/>
<path d="M79.857 30.2069H75.8475C75.5419 30.2069 75.2489 30.0858 75.0328 29.8703C74.8167 29.6547 74.6953 29.3624 74.6953 29.0575C74.6953 28.7527 74.8167 28.4603 75.0328 28.2447C75.2489 28.0292 75.5419 27.9081 75.8475 27.9081H79.857C80.1626 27.9081 80.4557 28.0292 80.6718 28.2447C80.8878 28.4603 81.0092 28.7527 81.0092 29.0575C81.0092 29.3624 80.8878 29.6547 80.6718 29.8703C80.4557 30.0858 80.1626 30.2069 79.857 30.2069Z" fill="#FCFCFA"/>
<path d="M58.4036 64.3678H48.034C47.7284 64.3678 47.4354 64.2467 47.2193 64.0312C47.0032 63.8156 46.8818 63.5232 46.8818 63.2184C46.8818 62.9135 47.0032 62.6212 47.2193 62.4056C47.4354 62.1901 47.7284 62.069 48.034 62.069H58.4036C58.7092 62.069 59.0022 62.1901 59.2183 62.4056C59.4344 62.6212 59.5557 62.9135 59.5557 63.2184C59.5557 63.5232 59.4344 63.8156 59.2183 64.0312C59.0022 64.2467 58.7092 64.3678 58.4036 64.3678Z" fill="#FCFCFA"/>
<path d="M55.6038 70.2989H50.8338C50.5282 70.2989 50.2352 70.1777 50.0191 69.9622C49.803 69.7466 49.6816 69.4543 49.6816 69.1494C49.6816 68.8446 49.803 68.5522 50.0191 68.3367C50.2352 68.1211 50.5282 68 50.8338 68H55.6038C55.9094 68 56.2024 68.1211 56.4185 68.3367C56.6346 68.5522 56.756 68.8446 56.756 69.1494C56.756 69.4543 56.6346 69.7466 56.4185 69.9622C56.2024 70.1777 55.9094 70.2989 55.6038 70.2989Z" fill="#FCFCFA"/>
</g>
<defs>
<clipPath id="clip0_6009_1188">
<rect width="106" height="100" fill="white"/>
</clipPath>
</defs>
</svg>
