<svg width="106" height="100" viewBox="0 0 106 100" fill="none" xmlns="http://www.w3.org/2000/svg">
<path d="M39.3617 81.9149H12.766C9.94453 81.9149 7.23864 80.7941 5.24357 78.799C3.2485 76.804 2.12769 74.0981 2.12769 71.2766V12.766C2.12769 9.94453 3.2485 7.23864 5.24357 5.24357C7.23864 3.2485 9.94453 2.12769 12.766 2.12769H34.0426L50 18.0851H87.2341C90.0555 18.0851 92.7614 19.2059 94.7565 21.201C96.7515 23.1961 97.8724 25.902 97.8724 28.7234V42.0213M80.8511 91.5798L69.2979 97.633C68.955 97.8114 68.5693 97.8911 68.1839 97.863C67.7984 97.835 67.4283 97.7003 67.1149 97.4741C66.8015 97.2479 66.5571 96.939 66.4091 96.582C66.2611 96.2249 66.2152 95.8338 66.2766 95.4522L68.4841 82.6277L59.1383 73.5479C58.8594 73.2782 58.6619 72.9356 58.5683 72.559C58.4748 72.1825 58.489 71.7872 58.6094 71.4184C58.7298 71.0495 58.9514 70.7219 59.249 70.473C59.5467 70.2241 59.9083 70.0639 60.2926 70.0107L73.2075 68.1383L78.9841 56.4734C79.1568 56.126 79.4231 55.8337 79.7529 55.6293C80.0828 55.425 80.4631 55.3167 80.8511 55.3167C81.2391 55.3167 81.6194 55.425 81.9492 55.6293C82.2791 55.8337 82.5453 56.126 82.7181 56.4734L88.4947 68.1383L101.41 70.0107C101.793 70.0658 102.153 70.227 102.449 70.4762C102.746 70.7253 102.966 71.0524 103.086 71.4205C103.206 71.7885 103.221 72.1828 103.129 72.5588C103.036 72.9347 102.841 73.2774 102.564 73.5479L93.2181 82.6277L95.4202 95.4468C95.4863 95.8291 95.4439 96.2223 95.2978 96.5816C95.1517 96.941 94.9077 97.2522 94.5936 97.4799C94.2795 97.7076 93.9078 97.8426 93.5209 97.8697C93.1339 97.8967 92.747 97.8147 92.4043 97.633L80.8511 91.5798Z" stroke="#FCFCFA" stroke-width="2.5" stroke-linecap="round" stroke-linejoin="round"/>
</svg>
