<svg width="103" height="100" viewBox="0 0 103 100" fill="none" xmlns="http://www.w3.org/2000/svg">
<g clip-path="url(#clip0_6009_1164)">
<path d="M40.5302 40.5302C50.9902 40.5302 59.4696 32.0507 59.4696 21.5908C59.4696 11.1308 50.9902 2.65137 40.5302 2.65137C30.0703 2.65137 21.5908 11.1308 21.5908 21.5908C21.5908 32.0507 30.0703 40.5302 40.5302 40.5302Z" stroke="#2C2E35" stroke-width="2.5"/>
<path d="M78.3995 78.409C78.4089 77.6325 78.4089 76.8417 78.4089 76.0416C78.4089 64.2755 61.4487 54.7347 40.5302 54.7347C19.6116 54.7347 2.65137 64.2755 2.65137 76.0416C2.65137 87.8077 2.65137 97.3484 40.5302 97.3484C51.0936 97.3484 58.712 96.605 64.2044 95.2792" stroke="#2C2E35" stroke-width="2.5" stroke-linecap="round"/>
<path d="M86.1077 59.1051C85.6247 59.2756 84.8293 59.2756 84.3463 59.1051C80.227 57.6989 71.0225 51.8324 71.0225 41.8892C71.0225 37.5 74.5594 33.9489 78.9202 33.9489C81.5054 33.9489 83.7923 35.1989 85.227 37.1307C86.6617 35.1989 88.9628 33.9489 91.5338 33.9489C95.8946 33.9489 99.4316 37.5 99.4316 41.8892C99.4316 51.8324 90.227 57.6989 86.1077 59.1051Z" stroke="#2C2E35" stroke-width="2.5" stroke-linecap="round" stroke-linejoin="round"/>
</g>
<defs>
<clipPath id="clip0_6009_1164">
<rect width="102.273" height="100" fill="white"/>
</clipPath>
</defs>
</svg>
